<?xml version="1.0" standalone="no"?>
<!DOCTYPE svg PUBLIC "-//W3C//DTD SVG 20010904//EN"
 "http://www.w3.org/TR/2001/REC-SVG-20010904/DTD/svg10.dtd">
<svg version="1.0" xmlns="http://www.w3.org/2000/svg"
 width="200.000000pt" height="200.000000pt" viewBox="0 0 200.000000 200.000000"
 preserveAspectRatio="xMidYMid meet">

<g transform="translate(0.000000,200.000000) scale(0.100000,-0.100000)"
fill="#000000" stroke="none">
<path d="M218 1249 c-104 -16 -186 -92 -209 -194 -25 -111 27 -223 126 -274
47 -25 58 -26 242 -29 l193 -4 0 41 0 41 -67 0 -68 1 28 20 c43 32 67 89 67
156 -1 159 -142 268 -312 242z m131 -118 c49 -34 66 -69 66 -129 0 -94 -58
-152 -153 -152 -111 0 -182 137 -122 235 44 71 144 93 209 46z"/>
<path d="M1440 994 l0 -245 53 3 52 3 3 243 2 242 -55 0 -55 0 0 -246z"/>
<path d="M1600 1195 l0 -45 70 0 70 0 0 -200 0 -200 55 0 55 0 0 200 0 200 70
0 70 0 0 45 0 45 -195 0 -195 0 0 -45z"/>
<path d="M715 1075 c-68 -32 -105 -87 -105 -158 0 -108 95 -189 196 -167 57
13 62 28 7 23 -126 -11 -198 123 -113 209 63 62 160 22 174 -73 9 -55 25 -89
43 -89 8 0 23 21 35 47 18 40 19 51 8 87 -7 23 -21 54 -33 70 -40 57 -146 82
-212 51z"/>
<path d="M1020 1084 c0 -3 23 -37 50 -75 28 -38 50 -73 50 -79 0 -6 -24 -43
-53 -83 -77 -104 -76 -97 -10 -97 l58 0 35 51 c18 28 37 52 41 54 3 3 23 -20
43 -50 l36 -55 61 0 c48 0 59 3 52 13 -6 6 -36 47 -67 89 l-56 77 55 78 55 78
-52 3 c-56 3 -54 5 -103 -63 l-21 -28 -29 46 -30 47 -57 0 c-32 0 -58 -3 -58
-6z"/>
</g>
</svg>
